<svg width="24" height="22" viewBox="0 0 24 22" fill="none" xmlns="http://www.w3.org/2000/svg">
<path id="arrow.uturn.backward" d="M23.0577 14.3398C23.0577 9.7483 19.966 6.57577 14.7284 6.57577H7.48355L4.81863 6.70267L6.83751 4.99528L9.76776 2.13424C9.99849 1.91505 10.1485 1.62664 10.1485 1.24594C10.1485 0.51914 9.64086 0 8.89099 0C8.56797 0 8.21034 0.149974 7.95654 0.392239L1.34616 6.91033C1.08082 7.16413 0.942383 7.51023 0.942383 7.86786C0.942383 8.21395 1.08082 8.56004 1.34616 8.81384L7.95654 15.3319C8.21034 15.5742 8.56797 15.7242 8.89099 15.7242C9.64086 15.7242 10.1485 15.205 10.1485 14.4782C10.1485 14.0975 9.99849 13.8207 9.76776 13.5899L6.83751 10.7289L4.81863 9.03304L7.48355 9.1484H14.7861C18.4778 9.1484 20.5197 11.248 20.5197 14.2475C20.5197 17.247 18.4778 19.4389 14.7861 19.4389H12.0866C11.3252 19.4389 10.783 20.0157 10.783 20.7195C10.783 21.4232 11.3252 22 12.0981 22H14.8784C20.0237 22 23.0577 18.9659 23.0577 14.3398Z" fill="white"/>
</svg>
