<svg width="24" height="22" viewBox="0 0 24 22" fill="none" xmlns="http://www.w3.org/2000/svg">
<path id="arrow.uturn.right" d="M0.942383 14.3398C0.942383 18.9659 3.97647 22 9.12172 22H11.9135C12.6865 22 13.2172 21.4232 13.2172 20.7195C13.2172 20.0157 12.6865 19.4389 11.9135 19.4389H9.21401C5.52235 19.4389 3.4804 17.247 3.4804 14.2475C3.4804 11.248 5.52235 9.1484 9.21401 9.1484H16.5166L19.1815 9.03304L17.1626 10.7289L14.2324 13.5899C14.0016 13.8207 13.8632 14.0975 13.8632 14.4782C13.8632 15.205 14.3593 15.7242 15.1207 15.7242C15.4322 15.7242 15.7898 15.5742 16.0436 15.3319L22.654 8.81384C22.9193 8.56004 23.0577 8.21395 23.0577 7.86786C23.0577 7.51023 22.9193 7.16413 22.654 6.91033L16.0436 0.392239C15.7898 0.149974 15.4322 0 15.1207 0C14.3593 0 13.8632 0.51914 13.8632 1.24594C13.8632 1.62664 14.0016 1.91505 14.2324 2.13424L17.1626 4.99528L19.1815 6.70267L16.5166 6.57577H9.2717C4.04569 6.57577 0.942383 9.7483 0.942383 14.3398Z" fill="white"/>
</svg>
