<svg width="30" height="16" viewBox="0 0 30 16" fill="none" xmlns="http://www.w3.org/2000/svg">
<path id="backward.fill" d="M13.4109 16C14.2849 16 15.0199 15.3346 15.0199 14.1229V8.40223C15.149 8.87896 15.5065 9.28616 16.1024 9.63377L26.2825 15.6127C26.7095 15.8709 27.0869 16 27.5239 16C28.3979 16 29.1329 15.3346 29.1329 14.1229V1.87709C29.1329 0.665425 28.3979 0 27.5239 0C27.0869 0 26.7095 0.129112 26.2825 0.387337L16.1024 6.36623C15.5065 6.71384 15.149 7.11111 15.0199 7.58783V1.87709C15.0199 0.665425 14.2949 0 13.4209 0C12.974 0 12.6065 0.129112 12.1695 0.387337L1.98947 6.36623C1.23466 6.81316 0.867188 7.31968 0.867188 7.99503C0.867188 8.66046 1.24459 9.19677 1.98947 9.63377L12.1695 15.6127C12.5965 15.8709 12.974 16 13.4109 16Z" fill="white"/>
</svg>
