<svg width="20" height="22" viewBox="0 0 20 22" fill="none" xmlns="http://www.w3.org/2000/svg">
<path id="bag" d="M3.95746 22H16.2951C18.3199 22 19.4949 20.825 19.4949 18.5799V7.72151C19.4949 5.47639 18.3094 4.30138 16.0433 4.30138H14.564C14.5116 1.95136 12.5078 0 10.0004 0C7.50348 0 5.48917 1.95136 5.43671 4.30138H3.95746C1.69136 4.30138 0.505859 5.47639 0.505859 7.72151V18.5799C0.505859 20.825 1.69136 22 3.95746 22ZM10.0004 1.85694C11.4377 1.85694 12.4973 2.93753 12.5392 4.30138H7.46151C7.50348 2.93753 8.56308 1.85694 10.0004 1.85694ZM4.09384 19.9123C3.12865 19.9123 2.5936 19.4087 2.5936 18.391V7.91035C2.5936 6.90319 3.12865 6.39962 4.09384 6.39962H15.9069C16.8616 6.39962 17.4071 6.90319 17.4071 7.91035V18.391C17.4071 19.4087 16.8616 19.9123 16.1587 19.9123H4.09384Z" fill="white"/>
</svg>
