<svg width="24" height="22" viewBox="0 0 24 22" fill="none" xmlns="http://www.w3.org/2000/svg">
<path id="circle.dashed" d="M11.9845 2.19149C12.91 2.19149 13.793 2.34043 14.6228 2.59574L15.4632 0.574468C14.3675 0.202128 13.1972 0 11.9845 0C10.7824 0 9.6015 0.202128 8.50576 0.574468L9.35682 2.59574C10.1866 2.34043 11.0696 2.19149 11.9845 2.19149ZM19.8036 6.92553L21.8143 6.08511C20.7504 3.96809 19.0164 2.24468 16.8994 1.17021L16.0696 3.19149C17.6653 4.01064 18.9738 5.31915 19.8036 6.92553ZM7.91001 3.19149L7.06959 1.18085C4.9632 2.24468 3.22916 3.97872 2.16533 6.08511L4.18661 6.92553C5.01639 5.32979 6.31427 4.02128 7.91001 3.19149ZM20.8036 11C20.8036 11.9149 20.6547 12.8085 20.41 13.6383L22.4206 14.4787C22.793 13.383 23.0058 12.2128 23.0058 11C23.0058 9.78723 22.793 8.61702 22.4206 7.52128L20.3994 8.3617C20.6653 9.19149 20.8036 10.0851 20.8036 11ZM3.20788 11C3.20788 10.0851 3.34618 9.19149 3.6015 8.37234L1.55895 7.52128C1.19724 8.61702 0.995117 9.78723 0.995117 11C0.995117 12.2128 1.19724 13.3723 1.56959 14.4681L3.6015 13.6277C3.34618 12.8085 3.20788 11.9149 3.20788 11ZM16.0696 18.8085L16.8994 20.8298C19.0164 19.7553 20.7504 18.0213 21.8143 15.9149L19.8143 15.0745C18.9845 16.6809 17.6653 17.9787 16.0696 18.8085ZM4.19724 15.0745L2.17597 15.9149C3.2398 18.0213 4.9632 19.7553 7.08022 20.8191L7.91001 18.7979C6.31427 17.9681 5.01639 16.6702 4.19724 15.0745ZM11.9951 19.7979C11.0696 19.7979 10.1866 19.6596 9.35682 19.3936L8.51639 21.4255C9.61214 21.7979 10.793 22 11.9951 22C13.2079 22 14.3781 21.7979 15.4738 21.4362L14.6228 19.4043C13.793 19.6596 12.91 19.7979 11.9951 19.7979Z" fill="white"/>
</svg>
