<svg width="30" height="16" viewBox="0 0 30 16" fill="none" xmlns="http://www.w3.org/2000/svg">
<path id="forward.fill" d="M2.47613 16C2.91312 16 3.29053 15.8709 3.71759 15.6127L13.8976 9.63377C14.4836 9.28616 14.851 8.87896 14.9802 8.3923V14.1229C14.9802 15.3346 15.7151 16 16.5891 16C17.0261 16 17.3936 15.8709 17.8306 15.6127L28.0106 9.63377C28.7555 9.19677 29.1329 8.66046 29.1329 7.99503C29.1329 7.31968 28.7654 6.81316 28.0106 6.36623L17.8306 0.387337C17.3936 0.129112 17.0162 0 16.5792 0C15.7052 0 14.9802 0.665425 14.9802 1.87709V7.58783C14.851 7.11111 14.4935 6.71384 13.8976 6.36623L3.71759 0.387337C3.29053 0.129112 2.91312 0 2.47613 0C1.60213 0 0.867188 0.665425 0.867188 1.87709V14.1229C0.867188 15.3346 1.60213 16 2.47613 16Z" fill="white"/>
</svg>
