<svg width="22" height="22" viewBox="0 0 22 22" fill="none" xmlns="http://www.w3.org/2000/svg">
<g id="Group 1171275841">
<path id="appletv" d="M20.6713 1.34426C19.5495 0.218579 18.003 0 15.999 0H5.96832C3.99703 0 2.4505 0.218579 1.32871 1.34426C0.206931 2.46995 0 4.01093 0 5.98907V15.9891C0 18 0.206931 19.541 1.32871 20.6557C2.4505 21.7705 3.99703 22 5.9901 22H15.999C18.003 22 19.5495 21.7705 20.6713 20.6557C21.7822 19.5301 22 18 22 15.9891V6.01093C22 4 21.7822 2.45902 20.6713 1.34426ZM19.8218 5.70492V16.2842C19.8218 17.4317 19.6802 18.459 19.0812 19.0601C18.4822 19.6612 17.4366 19.8142 16.304 19.8142H5.69604C4.56337 19.8142 3.51782 19.6612 2.91881 19.0601C2.3198 18.459 2.16733 17.4317 2.16733 16.2842V5.7377C2.16733 4.57923 2.3198 3.54098 2.91881 2.93989C3.51782 2.32787 4.56337 2.17486 5.71782 2.17486H16.304C17.4366 2.17486 18.4822 2.3388 19.0812 2.93989C19.6802 3.54098 19.8218 4.56831 19.8218 5.70492ZM6.25148 8.65574C7.10099 8.74317 7.77624 7.80328 7.71089 7.03825C6.86139 7.08197 6.21881 7.84699 6.25148 8.65574ZM12.0564 7.56284H10.9564V8.81967H10.205V9.67213H10.9564V12.7541C10.9564 13.8142 11.3812 14.2077 12.4703 14.2077C12.7099 14.2077 12.9713 14.1749 13.0584 14.1639V13.2678C13.0149 13.2896 12.8188 13.2896 12.7099 13.2896C12.2634 13.2896 12.0564 13.1148 12.0564 12.623V9.67213H13.0802V8.81967H12.0564V7.56284ZM9.1703 12.3279C8.75644 12.1421 8.49505 11.8798 8.34257 11.4973C8.17921 11.071 8.21188 10.6557 8.34257 10.2951C8.4297 10.0546 8.58218 9.75956 8.98515 9.51912C8.69109 9.06011 8.20099 8.81967 7.63465 8.81967C6.98119 8.81967 6.61089 9.15847 6.28416 9.15847C6.01188 9.15847 5.70693 8.8306 5.18416 8.8306C4.62871 8.8306 4.1604 9.06011 3.86634 9.45355C3.51782 9.89071 3.36535 10.4481 3.36535 10.9945C3.36535 11.9235 3.76832 13.0055 4.37822 13.6831C4.69406 14.0437 4.94455 14.2186 5.22772 14.2186C5.66337 14.2186 5.89208 13.9126 6.41485 13.9126C6.64356 13.9126 6.82871 14 6.9703 14.0437C7.17723 14.1093 7.3297 14.2077 7.5802 14.2077C7.84158 14.2077 8.04851 14.1093 8.1901 13.9672C8.65842 13.5301 9.01782 12.8634 9.1703 12.3279ZM16.6743 14.1639L18.602 8.81967H17.404L16.1079 13.1148L14.7356 8.81967H13.5703L15.5307 14.1639H16.6743Z" fill="white"/>
</g>
</svg>
