<svg width="20" height="20" viewBox="0 0 20 20" fill="none" xmlns="http://www.w3.org/2000/svg">
<path id="magnifyingglass" d="M8.27037 16.3532C9.92232 16.3532 11.4704 15.8545 12.7587 15.0026L17.3093 19.5636C17.6106 19.8545 17.995 20 18.4106 20C19.273 20 19.9067 19.3247 19.9067 18.4727C19.9067 18.0779 19.7717 17.6935 19.4808 17.4026L14.9613 12.8623C15.8963 11.5325 16.447 9.92208 16.447 8.17662C16.447 3.67792 12.7691 0 8.27037 0C3.78206 0 0.09375 3.67792 0.09375 8.17662C0.09375 12.6753 3.77167 16.3532 8.27037 16.3532ZM8.27037 14.1714C4.97687 14.1714 2.27557 11.4701 2.27557 8.17662C2.27557 4.88312 4.97687 2.18182 8.27037 2.18182C11.5639 2.18182 14.2652 4.88312 14.2652 8.17662C14.2652 11.4701 11.5639 14.1714 8.27037 14.1714Z" fill="white"/>
</svg>
