<svg width="18" height="22" viewBox="0 0 18 22" fill="none" xmlns="http://www.w3.org/2000/svg">
<path id="&#244;&#128;&#144;&#139;" d="M3.6638 22C2.6717 22 1.92605 21.7536 1.42684 21.2607C0.933946 20.7741 0.6875 20.0411 0.6875 19.0616V8.3128C0.6875 7.33333 0.933946 6.60032 1.42684 6.11374C1.92605 5.62085 2.6717 5.37441 3.6638 5.37441H14.3368C15.3226 5.37441 16.0651 5.62085 16.5643 6.11374C17.0635 6.60032 17.3131 7.33333 17.3131 8.3128V19.0616C17.3131 20.0348 17.0761 20.7678 16.6022 21.2607C16.1283 21.7536 15.4679 22 14.6212 22H3.6638ZM3.68276 20.4739H14.5927C14.9213 20.4739 15.2025 20.3476 15.4363 20.0948C15.6701 19.842 15.787 19.4692 15.787 18.9763V8.38863C15.787 7.90205 15.6575 7.53239 15.3984 7.27962C15.1393 7.02686 14.776 6.90047 14.3084 6.90047H3.68276C3.20883 6.90047 2.84548 7.02686 2.59271 7.27962C2.33995 7.53239 2.21357 7.90205 2.21357 8.38863V18.9763C2.21357 19.4692 2.33995 19.842 2.59271 20.0948C2.84548 20.3476 3.20883 20.4739 3.68276 20.4739ZM2.75385 3.84834C2.82336 3.41864 2.97186 3.09005 3.19935 2.86256C3.42684 2.62875 3.77755 2.51185 4.25148 2.51185H13.7396C14.2136 2.51185 14.5643 2.62875 14.7918 2.86256C15.0193 3.09005 15.1678 3.41864 15.2373 3.84834H2.75385ZM4.40314 1.22275C4.42842 0.818325 4.5548 0.515008 4.78229 0.312796C5.01609 0.104265 5.35101 0 5.78703 0H12.2041C12.6401 0 12.9719 0.104265 13.1993 0.312796C13.4332 0.515008 13.5659 0.818325 13.5975 1.22275H4.40314Z" fill="white"/>
</svg>
