<svg width="22" height="22" viewBox="0 0 22 22" fill="none" xmlns="http://www.w3.org/2000/svg">
<path id="paperplane" d="M13.1128 22C13.9226 22 14.4832 21.3459 14.8674 20.3492L21.7197 2.42945C21.8962 1.96225 22 1.55734 22 1.20434C22 0.467202 21.5328 0 20.7853 0C20.4427 0 20.0274 0.0934403 19.5706 0.269939L1.56772 7.16376C0.674847 7.50637 0 8.06701 0 8.87683C0 9.87353 0.73714 10.2473 1.7546 10.5484L9.25059 12.7494L11.4309 20.1623C11.7423 21.2213 12.1161 22 13.1128 22ZM9.85276 10.8391L3.40538 8.86645C3.24965 8.82492 3.20812 8.77301 3.20812 8.71071C3.20812 8.63804 3.24965 8.57574 3.38462 8.53421L15.7084 3.82067C16.5908 3.47806 17.4526 3.06277 18.3974 2.62671C17.6498 3.22888 16.7362 3.96602 16.1133 4.58896L9.85276 10.8391ZM13.2997 18.8023C13.227 18.8023 13.1751 18.74 13.1336 18.5946L11.1609 12.1472L17.411 5.88674C18.0132 5.27419 18.7815 4.3294 19.3837 3.5715C18.9476 4.52666 18.5219 5.39877 18.1793 6.29165L13.4658 18.6154C13.4139 18.7504 13.3723 18.8023 13.2997 18.8023Z" fill="white"/>
</svg>
