<svg width="18" height="22" viewBox="0 0 18 22" fill="none" xmlns="http://www.w3.org/2000/svg">
<path id="pause.fill" d="M2.42944 22H5.53641C6.79242 22 7.44025 21.3522 7.44025 20.0962V1.90385C7.44025 0.621394 6.79242 0.0132212 5.53641 0H2.42944C1.17343 0 0.525589 0.647837 0.525589 1.90385V20.0962C0.512368 21.3522 1.1602 22 2.42944 22ZM12.4775 22H15.5713C16.8273 22 17.4751 21.3522 17.4751 20.0962V1.90385C17.4751 0.621394 16.8273 0 15.5713 0H12.4775C11.2083 0 10.5737 0.647837 10.5737 1.90385V20.0962C10.5737 21.3522 11.2083 22 12.4775 22Z" fill="white"/>
</svg>
