<svg width="24" height="22" viewBox="0 0 24 22" fill="none" xmlns="http://www.w3.org/2000/svg">
<path id="pencil.tip.crop.circle" d="M11.9951 22C18.027 22 23.0058 17.0213 23.0058 11C23.0058 4.97872 18.0164 0 11.9845 0C5.9632 0 0.995117 4.97872 0.995117 11C0.995117 17.0213 5.97384 22 11.9951 22ZM11.2398 6.17021L9.4632 11.3617C8.92065 11.3617 8.45256 11.7979 8.31427 12.383L6.98448 18.2447C4.69724 16.6596 3.20788 14.0106 3.20788 11C3.20788 6.11702 7.11214 2.20213 11.9845 2.20213C16.8675 2.20213 20.793 6.11702 20.8036 11C20.8036 14.0106 19.3143 16.6489 17.027 18.2447L15.6972 12.3936C15.5589 11.8191 15.1121 11.383 14.5483 11.3617L12.7611 6.17021C12.5058 5.43617 11.4951 5.43617 11.2398 6.17021ZM11.9951 19.8085C10.7398 19.8085 9.54831 19.5426 8.4632 19.0745L9.84618 12.9362H14.1653L15.5483 19.0638C14.4632 19.5426 13.2611 19.8085 11.9951 19.8085Z" fill="white"/>
</svg>
