<svg width="28" height="22" viewBox="0 0 28 22" fill="none" xmlns="http://www.w3.org/2000/svg">
<path id="photo.tv" d="M3.35859 18.2585H24.6424C26.5879 18.2585 27.6035 17.275 27.6035 15.2974V2.96113C27.6035 0.983479 26.5879 0 24.6424 0H3.35859C1.41301 0 0.397461 0.983479 0.397461 2.96113V15.2974C0.397461 17.275 1.41301 18.2585 3.35859 18.2585ZM2.47132 3.08941C2.47132 2.36249 2.79202 2.07386 3.49756 2.07386H24.5034C25.2089 2.07386 25.5296 2.36249 25.5296 3.08941V14.2284L19.7677 8.82993C19.2974 8.39164 18.7415 8.17784 18.1642 8.17784C17.587 8.17784 17.0525 8.38095 16.5607 8.81924L11.2906 13.5335L8.86393 11.3528C8.42564 10.9466 7.9339 10.7434 7.42078 10.7434C6.92904 10.7434 6.48007 10.9466 6.05247 11.3314L2.47132 14.5384V3.08941ZM9.55878 9.08649C10.9485 9.08649 12.103 7.93197 12.103 6.5102C12.103 5.10982 10.9485 3.94461 9.55878 3.94461C8.13701 3.94461 6.97181 5.10982 6.97181 6.5102C6.97181 7.93197 8.13701 9.08649 9.55878 9.08649ZM8.53254 22H19.4684C20.0029 22 20.4412 21.5617 20.4412 21.0272C20.4412 20.4927 20.0029 20.0437 19.4684 20.0437H8.53254C7.99804 20.0437 7.55975 20.4927 7.55975 21.0272C7.55975 21.5617 7.99804 22 8.53254 22Z" fill="white"/>
</svg>
