<svg width="24" height="22" viewBox="0 0 24 22" fill="none" xmlns="http://www.w3.org/2000/svg">
<path id="play.circle" d="M11.9951 22C18.027 22 23.0058 17.0213 23.0058 11C23.0058 4.97872 18.0164 0 11.9845 0C5.9632 0 0.995117 4.97872 0.995117 11C0.995117 17.0213 5.97384 22 11.9951 22ZM11.9951 19.8085C7.11214 19.8085 3.20788 15.883 3.20788 11C3.20788 6.11702 7.11214 2.20213 11.9845 2.20213C16.8675 2.20213 20.793 6.11702 20.8036 11C20.8143 15.883 16.8781 19.8085 11.9951 19.8085ZM16.1228 11.5957C16.5696 11.3404 16.5589 10.6915 16.1228 10.4362L9.99512 6.81915C9.52703 6.55319 8.91001 6.7766 8.91001 7.29787V14.7234C8.91001 15.2447 9.49512 15.5 9.99512 15.2021L16.1228 11.5957Z" fill="white"/>
</svg>
