<svg width="36" height="22" viewBox="0 0 36 22" fill="none" xmlns="http://www.w3.org/2000/svg">
<path id="rectangle.and.pencil.and.ellipsis" d="M34.0192 2.98992L34.894 2.09269C35.3314 1.63286 35.3539 1.0048 34.9165 0.567402L34.6249 0.264587C34.2323 -0.127952 33.5818 -0.0718746 33.1557 0.35431L32.2696 1.22911L34.0192 2.98992ZM21.2225 14.4296L23.5889 13.409L33.2005 3.80865L31.4397 2.07026L21.8393 11.6706L20.7739 13.9698C20.6617 14.239 20.9645 14.5418 21.2225 14.4296ZM4.06295 22H27.4695C29.5892 22 30.7668 20.8448 30.7668 18.7363V9.12474L28.5013 11.3902V18.5344C28.5013 19.4092 28.0078 19.9027 27.1218 19.9027H4.39941C3.52461 19.9027 3.03113 19.4092 3.03113 18.5344V9.19203C3.03113 8.30602 3.52461 7.82376 4.39941 7.82376H22.7814L24.8675 5.73769H4.06295C1.94324 5.73769 0.765625 6.88166 0.765625 8.99016V18.7363C0.765625 20.8448 1.94324 22 4.06295 22ZM7.18082 15.5399C8.10049 15.5399 8.8407 14.7885 8.8407 13.8688C8.8407 12.938 8.10049 12.1978 7.18082 12.1978C6.24995 12.1978 5.49852 12.938 5.49852 13.8688C5.49852 14.7885 6.24995 15.5399 7.18082 15.5399ZM12.138 15.5399C13.0577 15.5399 13.8091 14.7885 13.8091 13.8688C13.8091 12.938 13.0577 12.1978 12.138 12.1978C11.2071 12.1978 10.4669 12.938 10.4669 13.8688C10.4669 14.7885 11.2071 15.5399 12.138 15.5399ZM17.0952 15.5399C18.0149 15.5399 18.7663 14.7885 18.7663 13.8688C18.7663 12.938 18.0149 12.1978 17.0952 12.1978C16.1756 12.1978 15.4241 12.938 15.4241 13.8688C15.4241 14.7885 16.1756 15.5399 17.0952 15.5399Z" fill="white"/>
</svg>
