<svg width="32" height="22" viewBox="0 0 32 22" fill="none" xmlns="http://www.w3.org/2000/svg">
<path id="speaker.wave.3" d="M26.8521 21.8315C27.3361 22.1505 27.9851 22.0075 28.3371 21.4795C30.2733 18.5753 31.4393 14.9671 31.4393 11.0069C31.4393 7.03563 30.2513 3.43842 28.3371 0.523254C27.9851 -0.0157769 27.3361 -0.147784 26.8521 0.171234C26.324 0.512254 26.247 1.16129 26.61 1.74432C28.2931 4.30747 29.3382 7.48666 29.3382 11.0069C29.3382 14.5051 28.2931 17.7062 26.61 20.2584C26.247 20.8414 26.324 21.4905 26.8521 21.8315ZM3.01369 15.7041H6.12687C6.21487 15.7041 6.30288 15.7261 6.36888 15.7921L11.1982 20.1044C11.7702 20.6214 12.2102 20.8634 12.7933 20.8634C13.6073 20.8634 14.2233 20.2474 14.2233 19.4333V2.63538C14.2233 1.81033 13.6073 1.15029 12.7712 1.15029C12.2102 1.15029 11.8142 1.4033 11.1982 1.96434L6.36888 6.24358C6.30288 6.30959 6.21487 6.33159 6.12687 6.33159H3.01369C1.38559 6.33159 0.560547 7.18964 0.560547 8.90574V13.13C0.560547 14.8571 1.3966 15.7041 3.01369 15.7041ZM22.3968 18.8503C22.9028 19.1583 23.5189 19.0483 23.8599 18.5313C25.301 16.5072 26.126 13.79 26.126 10.9959C26.126 8.2017 25.312 5.47354 23.8599 3.46042C23.5189 2.94339 22.9028 2.82239 22.3968 3.1414C21.8688 3.47142 21.7918 4.13146 22.1768 4.7145C23.3539 6.43059 24.0249 8.66372 24.0249 10.9959C24.0249 13.317 23.3319 15.5501 22.1768 17.2772C21.8028 17.8603 21.8688 18.5093 22.3968 18.8503ZM3.2117 13.735C2.84868 13.735 2.67267 13.559 2.67267 13.196V8.85073C2.67267 8.47671 2.84868 8.3007 3.2117 8.3007H6.6439C6.94091 8.3007 7.16093 8.2457 7.41394 8.01468L11.7922 4.02146C11.8472 3.97745 11.9022 3.94445 11.9682 3.94445C12.0562 3.94445 12.1222 3.99945 12.1222 4.09846V17.9043C12.1222 18.0143 12.0562 18.0693 11.9792 18.0693C11.9132 18.0693 11.8582 18.0473 11.7922 17.9923L7.41394 14.021C7.16093 13.79 6.94091 13.735 6.6439 13.735H3.2117ZM17.9745 15.9021C18.4476 16.2102 19.0636 16.1002 19.4046 15.6161C20.2957 14.4281 20.8237 12.745 20.8237 10.9959C20.8237 9.24676 20.2957 7.57466 19.4046 6.37559C19.0636 5.89156 18.4476 5.78156 17.9745 6.10057C17.4355 6.4526 17.3255 7.10163 17.7655 7.73967C18.3706 8.60872 18.7116 9.77479 18.7116 10.9959C18.7116 12.2169 18.3596 13.372 17.7655 14.252C17.3365 14.8901 17.4355 15.5391 17.9745 15.9021Z" fill="white"/>
</svg>
