<svg width="30" height="22" viewBox="0 0 30 22" fill="none" xmlns="http://www.w3.org/2000/svg">
<path id="speaker.wave.2.fill" d="M14.1839 22C15.1046 22 15.7799 21.3125 15.7799 20.404V1.65737C15.7799 0.736607 15.1046 0 14.1593 0C13.5332 0 13.0912 0.270089 12.416 0.908482L7.28432 5.70871C7.21066 5.78237 7.11244 5.8192 7.00195 5.8192H3.52762C1.71066 5.8192 0.728516 6.82589 0.728516 8.7288V13.2958C0.728516 15.1987 1.71066 16.2054 3.52762 16.2054H7.00195C7.11244 16.2054 7.19838 16.2422 7.28432 16.3158L12.416 21.1529C13.0299 21.7422 13.5455 22 14.1839 22ZM25.0979 19.7533C25.6627 20.0971 26.3502 19.9743 26.743 19.3973C28.339 17.1384 29.272 14.106 29.272 10.9877C29.272 7.86942 28.3513 4.82478 26.743 2.57812C26.3502 2.00112 25.6627 1.86607 25.0979 2.2221C24.5086 2.5904 24.4227 3.32701 24.8647 3.97768C26.166 5.89286 26.9149 8.38505 26.9149 10.9877C26.9149 13.5781 26.1537 16.0703 24.8647 17.9978C24.435 18.6484 24.5086 19.3728 25.0979 19.7533ZM20.1627 16.4632C20.6906 16.8069 21.3781 16.6842 21.7586 16.144C22.7531 14.8181 23.3424 12.9397 23.3424 10.9877C23.3424 9.03571 22.7531 7.16964 21.7586 5.83147C21.3781 5.29129 20.6906 5.16853 20.1627 5.52455C19.5611 5.91741 19.4383 6.64174 19.9294 7.3538C20.6046 8.32366 20.9852 9.625 20.9852 10.9877C20.9852 12.3504 20.5924 13.6395 19.9294 14.6217C19.4506 15.3337 19.5611 16.058 20.1627 16.4632Z" fill="white"/>
</svg>
