<svg width="22" height="22" viewBox="0 0 22 22" fill="none" xmlns="http://www.w3.org/2000/svg">
<path id="wand.and.rays" d="M12.0127 1.01769C12.0127 0.468934 11.5438 0 10.995 0C10.4463 0 9.9873 0.468934 9.9873 1.01769V4.08073C9.9873 4.62948 10.4463 5.08844 10.995 5.08844C11.5438 5.08844 12.0127 4.62948 12.0127 4.08073V1.01769ZM15.1755 5.39773C14.7864 5.78685 14.7964 6.43537 15.1855 6.82449C15.5646 7.21361 16.2231 7.21361 16.6122 6.82449L18.7474 4.67937C19.1365 4.30023 19.1365 3.63175 18.7474 3.24263C18.3583 2.86349 17.7098 2.86349 17.3206 3.25261L15.1755 5.39773ZM5.37778 6.82449C5.75692 7.20363 6.41542 7.21361 6.80453 6.82449C7.19365 6.43537 7.19365 5.78685 6.80453 5.39773L4.67937 3.26258C4.30023 2.87347 3.64172 2.86349 3.25261 3.24263C2.86349 3.63175 2.86349 4.29025 3.25261 4.66939L5.37778 6.82449ZM18.937 20.8426C19.4258 21.3415 20.2639 21.3315 20.7429 20.8426C21.2317 20.3338 21.2218 19.5356 20.7429 19.0367L11.2644 9.50839C10.7755 9.0195 9.93742 9.0195 9.4585 9.50839C8.96961 10.0172 8.97959 10.8254 9.4585 11.3143L18.937 20.8426ZM1.01769 9.9873C0.458957 9.9873 0 10.4463 0 10.995C0 11.5438 0.458957 12.0127 1.01769 12.0127H4.08073C4.62948 12.0127 5.09841 11.5438 5.09841 10.995C5.09841 10.4463 4.62948 9.9873 4.08073 9.9873H1.01769ZM20.9823 12.0127C21.5311 12.0127 22 11.5438 22 10.995C22 10.4463 21.5311 9.9873 20.9823 9.9873H17.9193C17.3705 9.9873 16.9016 10.4463 16.9016 10.995C16.9016 11.5438 17.3705 12.0127 17.9193 12.0127H20.9823ZM13.3098 13.9283L10.3066 10.9252C10.107 10.7156 10.0272 10.4762 10.2367 10.2766C10.4163 10.0971 10.6658 10.1469 10.8853 10.3565L13.8785 13.3596L13.3098 13.9283ZM3.24263 17.3007C2.85351 17.6898 2.85351 18.3383 3.22268 18.7274C3.61179 19.1166 4.28027 19.1265 4.65941 18.7474L6.80453 16.6122C7.19365 16.2231 7.19365 15.5646 6.80453 15.1855C6.4254 14.7964 5.76689 14.7864 5.37778 15.1755L3.24263 17.3007ZM12.0127 17.9193C12.0127 17.3705 11.5438 16.9016 10.995 16.9016C10.4463 16.9016 9.9873 17.3705 9.9873 17.9193V20.9823C9.9873 21.5311 10.4463 22 10.995 22C11.5438 22 12.0127 21.5311 12.0127 20.9823V17.9193Z" fill="white"/>
</svg>
